<?xml version="1.0" encoding="utf-8"?>
<!-- Svg Vector Icons : http://www.onlinewebfonts.com/icon -->
<!DOCTYPE svg PUBLIC "-//W3C//DTD SVG 1.1//EN" "http://www.w3.org/Graphics/SVG/1.1/DTD/svg11.dtd">
<svg version="1.1" xmlns="http://www.w3.org/2000/svg" xmlns:xlink="http://www.w3.org/1999/xlink" x="0px" y="0px" viewBox="0 0 256 256" enable-background="new 0 0 256 256" xml:space="preserve">
<metadata> Svg Vector Icons : http://www.onlinewebfonts.com/icon </metadata>
<g><g><path fill="#000000" d="M93.3,150.2c-6.6,0-11.9-5.3-11.9-11.9s5.3-11.8,11.9-11.8c6.6,0,11.9,5.3,11.9,11.8C105.2,144.9,99.9,150.2,93.3,150.2L93.3,150.2z M93.3,102.8c0-6.6,5.3-11.9,11.9-11.9c6.5,0,11.9,5.3,11.9,11.9c0,6.5-5.3,11.9-11.9,11.9C98.6,114.6,93.3,109.3,93.3,102.8L93.3,102.8z M105.2,67.2c0-6.6,5.3-11.9,11.9-11.9c6.6,0,11.9,5.3,11.9,11.9S123.6,79,117.1,79C110.5,79,105.2,73.7,105.2,67.2L105.2,67.2z M111.2,154.7l9.2-14.9l44.1,11.9l-9.2,14.9L111.2,154.7L111.2,154.7z M194.2,80.5L185,95.4L141,83.5l9.2-14.9L194.2,80.5L194.2,80.5z M129.1,119.1l9.2-14.9l44.1,11.9l-9.2,14.9L129.1,119.1L129.1,119.1z M235.9,85l-41.1,104.3l-21,39.2c-9.9,14.4-27.3,17.8-47.8,11.5L28,197.7c-13.8-8.3-18.9-24.2-17.8-41.5l1.1-11.1l27.6,11.4l-0.1,0.1c0,0,31.8,13.8,42.6,17.4c12.4,4.2,41.6,11.8,41.6,11.8c-3.9,11.1-3.2,16.6,0,23.7c0.8,1.7,4,4.9,5.9,5.9c1.9,2.3,6.7,4.8,11.8,5.5c15,2.1,24.6-20.9,24.6-20.9l7.9-15.7L224,61.2L105.2,31.6L63,138.2c-1.2,3.5-4.5,7-8.4,6.1c-10-2.2-5.5-12.8-4.1-16.7L94,19.7c4.4-4.6,9.1-6.9,14.1-6.7L224,37.5C256.8,44.5,245.9,60.2,235.9,85L235.9,85z"/></g></g>
</svg>